<svg height="496pt" viewBox="0 -15 496 495" width="496pt" xmlns="http://www.w3.org/2000/svg"><g fill="#231f20"><path d="m472 32.5h-40v-24c0-4.417969-3.582031-8-8-8h-32c-4.417969 0-8 3.582031-8 8v24h-272v-24c0-4.417969-3.582031-8-8-8h-32c-4.417969 0-8 3.582031-8 8v24h-40c-13.253906 0-24 10.746094-24 24v384c0 13.253906 10.746094 24 24 24h448c13.253906 0 24-10.746094 24-24v-384c0-13.253906-10.746094-24-24-24zm-72-16h16v48h-16zm-320 0h16v48h-16zm-64 40c0-4.417969 3.582031-8 8-8h40v24c0 4.417969 3.582031 8 8 8h32c4.417969 0 8-3.582031 8-8v-24h272v24c0 4.417969 3.582031 8 8 8h32c4.417969 0 8-3.582031 8-8v-24h40c4.417969 0 8 3.582031 8 8v40h-464zm464 384c0 4.417969-3.582031 8-8 8h-448c-4.417969 0-8-3.582031-8-8v-328h464zm0 0"/><path d="m312 192.5h48c4.417969 0 8-3.582031 8-8v-48c0-4.417969-3.582031-8-8-8h-48c-4.417969 0-8 3.582031-8 8v48c0 4.417969 3.582031 8 8 8zm8-48h32v32h-32zm0 0"/><path d="m400 192.5h48c4.417969 0 8-3.582031 8-8v-48c0-4.417969-3.582031-8-8-8h-48c-4.417969 0-8 3.582031-8 8v48c0 4.417969 3.582031 8 8 8zm8-48h32v32h-32zm0 0"/><path d="m312 272.5h48c4.417969 0 8-3.582031 8-8v-48c0-4.417969-3.582031-8-8-8h-48c-4.417969 0-8 3.582031-8 8v48c0 4.417969 3.582031 8 8 8zm8-48h32v32h-32zm0 0"/><path d="m400 272.5h48c4.417969 0 8-3.582031 8-8v-48c0-4.417969-3.582031-8-8-8h-48c-4.417969 0-8 3.582031-8 8v48c0 4.417969 3.582031 8 8 8zm8-48h32v32h-32zm0 0"/><path d="m312 352.5h48c4.417969 0 8-3.582031 8-8v-48c0-4.417969-3.582031-8-8-8h-48c-4.417969 0-8 3.582031-8 8v48c0 4.417969 3.582031 8 8 8zm8-48h32v32h-32zm0 0"/><path d="m400 352.5h48c4.417969 0 8-3.582031 8-8v-48c0-4.417969-3.582031-8-8-8h-48c-4.417969 0-8 3.582031-8 8v48c0 4.417969 3.582031 8 8 8zm8-48h32v32h-32zm0 0"/><path d="m304 408.5h104c4.417969 0 8-3.582031 8-8s-3.582031-8-8-8h-104c-4.417969 0-8 3.582031-8 8s3.582031 8 8 8zm0 0"/><path d="m448 392.5h-16c-4.417969 0-8 3.582031-8 8s3.582031 8 8 8h16c4.417969 0 8-3.582031 8-8s-3.582031-8-8-8zm0 0"/><path d="m40 432.5h224c4.417969 0 8-3.582031 8-8v-288c0-4.417969-3.582031-8-8-8h-224c-4.417969 0-8 3.582031-8 8v288c0 4.417969 3.582031 8 8 8zm8-288h208v272h-208zm0 0"/></g></svg>